HIERARCHY
ROOT root     
{
	OFFSET 0.0000 0.0000 0.0000
	CHANNELS 6 Xposition Yposition Zposition Zrotation Yrotation Xrotation
	JOINT pelvis   
	{
		OFFSET 0.0000 0.0000 0.0000
		CHANNELS 3 Zrotation Yrotation Xrotation
		JOINT thorax   
		{
			OFFSET 0.0000 23.0750 -5.0000
			CHANNELS 3 Zrotation Yrotation Xrotation
			JOINT rclavicle
			{
				OFFSET 0.0000 28.0009 0.0000
				CHANNELS 3 Zrotation Yrotation Xrotation
				JOINT rhumerus 
				{
					OFFSET -18.5725 5.5939 0.0000
					CHANNELS 3 Zrotation Yrotation Xrotation
					JOINT rradius  
					{
						OFFSET -24.8459 0.0000 0.0000
						CHANNELS 3 Zrotation Yrotation Xrotation
						JOINT rhand    
						{
							OFFSET -24.5477 0.0000 0.0000
							CHANNELS 3 Zrotation Yrotation Xrotation
							End Site
							{
								OFFSET -8.1826 0.0000 0.0000
							}
						}
					}
				}
			}
			JOINT lclavicle
			{
				OFFSET 0.0000 28.0009 0.0000
				CHANNELS 3 Zrotation Yrotation Xrotation
				JOINT lhumerus 
				{
					OFFSET 18.5725 5.5939 0.0000
					CHANNELS 3 Zrotation Yrotation Xrotation
					JOINT lradius  
					{
						OFFSET 24.8459 0.0000 0.0000
						CHANNELS 3 Zrotation Yrotation Xrotation
						JOINT lhand    
						{
							OFFSET 24.5477 0.0000 0.0000
							CHANNELS 3 Zrotation Yrotation Xrotation
							End Site
							{
								OFFSET 8.1826 0.0000 0.0000
							}
						}
					}
				}
			}
			JOINT head     
			{
				OFFSET 0.0000 35.2030 0.0000
				CHANNELS 3 Zrotation Yrotation Xrotation
				End Site
				{
					OFFSET 0.0000 11.7343 0.0000
				}
			}
		}
		JOINT rfemur   
		{
			OFFSET -8.2817 0.0000 0.0000
			CHANNELS 3 Zrotation Yrotation Xrotation
			JOINT rtibia   
			{
				OFFSET 0.0000 -43.3627 0.0000
				CHANNELS 3 Zrotation Yrotation Xrotation
				JOINT rfoot    
				{
					OFFSET 0.0000 -38.2947 0.0000
					CHANNELS 3 Zrotation Yrotation Xrotation
					JOINT rtoes    
					{
						OFFSET 0.0000 0.0000 16.6054
						CHANNELS 3 Zrotation Yrotation Xrotation
						End Site
						{
							OFFSET 0.0000 0.0000 5.5351
						}
					}
				}
			}
		}
		JOINT lfemur   
		{
			OFFSET 8.2817 0.0000 0.0000
			CHANNELS 3 Zrotation Yrotation Xrotation
			JOINT ltibia   
			{
				OFFSET 0.0000 -43.3627 0.0000
				CHANNELS 3 Zrotation Yrotation Xrotation
				JOINT lfoot    
				{
					OFFSET 0.0000 -38.2947 0.0000
					CHANNELS 3 Zrotation Yrotation Xrotation
					JOINT ltoes    
					{
						OFFSET 0.0000 0.0000 16.6054
						CHANNELS 3 Zrotation Yrotation Xrotation
						End Site
						{
							OFFSET 0.0000 0.0000 5.5351
						}
					}
				}
			}
		}
	}
}
MOTION
Frames: 7
Frame Time: .0333333
-62.706 75.532 -2.9402 -68.2551 84.2442 -47.3406 0 -0 0 -2.38136 5.2712 19.6194 20.8824 -8.11989 1.99687e-05 51.5298 -1.53288 9.83552 -180 83.6174 -180 -5.58557 1.61662 -0.0789023 -23.206 18.9282 -0.000175803 -56.3465 24.2588 3.49344 6.39266e-06 -84.8375 -6.54906e-06 -0.763912 4.65438 -0.0310006 3.09305 1.9456 -17.0852 6.21008 -17.9588 -17.9133 -0 -0 64.1205 4.82176e-07 9.75177 9.26138 1.58443 2.06494e-05 -81.9367 -13.4156 7.7213 -62.9848 -0 -0 54.587 1.20123e-05 11.3519 -9.11094 -1.82082 -1.20174e-06 -5.45959 
-61.292 75.26 -2.8603 -65.8446 83.9107 -45.2535 0 -0 0 -2.63232 5.36687 19.57 21.0993 -7.91841 6.2724e-05 51.9128 -1.80084 9.61165 -180 84.1952 -180 -5.10812 1.79473 -0.0801024 -23.4837 18.6614 -5.03299e-05 -56.1207 23.5101 3.38249 0 -84.5157 0 -0.451998 4.90324 -0.0194 3.14744 2.31167 -17.4035 5.64178 -17.4355 -18.098 -0 -0 66.1705 3.24255e-06 10.4021 11.7907 2.14819 -4.31449e-05 -80.347 -12.8013 7.74601 -62.6997 -0 -0 56.6435 1.36234e-05 12.0285 -10.3356 -2.18929 -2.91807e-07 -2.33562 
-59.912 75.008 -2.8028 -63.2149 83.5979 -42.925 0 -0 0 -2.92531 5.45203 19.5512 21.3417 -7.6783 6.76431e-06 52.3393 -2.05615 9.31721 -180 84.8424 -180 -4.67858 1.98066 -0.0808976 -23.7919 18.3374 -9.57451e-05 -55.7984 22.6214 3.34674 3.10437e-06 -84.1365 -2.80209e-06 -0.0872988 5.21034 -0.00399995 3.15904 2.65522 -17.7187 5.05721 -16.8215 -18.4896 -0 -0 68.3329 -2.22119e-05 10.5962 13.9584 2.58388 -4.53668e-06 -77.9924 -12.3397 7.83174 -62.3582 -0 -0 58.5415 3.69283e-05 12.6582 -11.5418 -2.573 -4.22327e-08 -0.267394 
-58.566 74.782 -2.7663 -60.5268 83.3277 -40.5185 0 -0 0 -3.2434 5.51007 19.5621 21.5986 -7.40957 -4.84175e-06 52.8107 -2.28818 8.96416 -180 85.5805 -180 -4.32539 2.16173 -0.0816011 -24.1219 17.9571 0.000123779 -55.3877 21.598 3.38405 2.0461e-06 -83.6902 -1.83233e-06 0.330606 5.57049 0.0161004 3.1218 2.97521 -18.0067 4.47429 -16.1469 -19.0787 -0 -0 70.5759 -1.85651e-05 10.2411 15.6623 2.79228 -7.00269e-06 -75.1293 -12.0201 7.96419 -61.9502 -0 -0 60.2413 -7.50862e-05 13.2338 -12.7321 177.033 -4.51949e-08 -0.851793 
-57.252 74.584 -2.7485 -57.9419 83.0962 -38.1948 0 -0 0 -3.56667 5.52414 19.5993 21.863 -7.12316 -4.68372e-05 53.33 -2.48749 8.56849 -180 86.4185 -180 -4.07633 2.32294 -0.082699 -24.4635 17.532 -2.56166e-05 -54.8999 20.4482 3.49681 0 -83.1701 0 0.799096 5.97613 0.0416996 3.03367 3.27265 -18.246 3.90958 -15.4422 -19.8511 -0 -0 72.8662 -3.92166e-05 9.28864 16.8334 2.71174 4.26028e-05 -71.9942 -11.8242 8.13198 -61.4678 -0 -0 61.7228 -0.000113363 13.7542 -13.9068 176.633 1.13189e-06 -1.17095 
-55.97 74.415 -2.7468 -55.5979 82.8928 -36.09 0 -0 0 -3.87359 5.47889 19.6592 22.1206 -6.83169 -4.75036e-05 53.8941 -2.64744 8.14802 -180 87.3719 -180 -3.95583 2.44951 -0.084598 -24.7995 17.0733 -0.000119888 -54.3572 19.1872 3.67761 0 -82.6023 -0 1.31219 6.41745 0.0735997 2.89701 3.55046 -18.4177 3.37759 -14.7353 -20.7866 -0 -0 75.1625 -2.99178e-05 7.74615 17.4354 2.33403 -2.68259e-05 -68.7476 -11.7245 8.31746 -60.9109 -0 -0 62.9807 2.49074e-05 14.2204 -15.0648 176.231 -8.30594e-07 -0.860807 
-54.715 74.276 -2.7584 -53.5919 82.735 -34.3053 0 -0 0 -4.14433 5.36148 19.7378 22.3596 -6.54678 -5.98296e-06 54.4975 -2.76516 7.71982 -180 88.4625 -180 -3.98408 2.5269 -0.0879002 -25.1143 16.5902 5.13532e-05 -53.7837 17.8339 3.91711 2.31021e-06 -81.9803 -2.0076e-06 1.86044 6.88242 0.111896 2.71819 3.81135 -18.5119 2.88879 -14.0454 -21.8646 -0 -0 77.422 1.08593e-05 5.67953 17.4561 1.70877 -2.06691e-05 -65.427 -11.6911 8.50894 -60.279 -0 -0 64.0279 5.87981e-05 14.6389 -16.1995 175.832 5.48435e-09 -0.1115 
